<svg id="SvgjsSvg1026" width="288" height="288" xmlns="http://www.w3.org/2000/svg" version="1.1" xmlns:xlink="http://www.w3.org/1999/xlink" xmlns:svgjs="http://svgjs.com/svgjs"><defs id="SvgjsDefs1027"></defs><g id="SvgjsG1028"><svg xmlns="http://www.w3.org/2000/svg" viewBox="0 0 32 32" width="288" height="288"><g data-name="Layer 2"><path fill="#ffffff" d="M18 17H4a1 1 0 0 1 0-2h14a1 1 0 0 1 0 2Zm4 6h-8a1 1 0 0 0 0 2h8a1 1 0 0 0 0-2Zm6-16H10a1 1 0 0 0 0 2h18a1 1 0 0 0 0-2Z" class="color13104c svgShape"></path><path fill="#4c46c8" d="M5 4a1 1 0 0 1 1-1h20a1 1 0 0 1 0 2H6a1 1 0 0 1-1-1Zm16 16a1 1 0 0 0-1-1H8a1 1 0 0 0 0 2h12a1 1 0 0 0 1-1Zm0 7h-4a1 1 0 0 0 0 2h4a1 1 0 0 0 0-2Zm3-16H8a1 1 0 0 0 0 2h16a1 1 0 0 0 0-2Z" class="color4c46c8 svgShape"></path></g></svg></g></svg>